<?xml version="1.0" standalone="no"?>
<!DOCTYPE svg PUBLIC "-//W3C//DTD SVG 20010904//EN"
 "http://www.w3.org/TR/2001/REC-SVG-20010904/DTD/svg10.dtd">
<svg version="1.0" xmlns="http://www.w3.org/2000/svg"
 width="1254.000000pt" height="1254.000000pt" viewBox="0 0 1254.000000 1254.000000"
 preserveAspectRatio="xMidYMid meet">

<g transform="translate(0.000000,1254.000000) scale(0.100000,-0.100000)"
fill="#000000" stroke="none">
<path d="M6300 9800 c-191 -29 -322 -66 -487 -136 -205 -88 -371 -203 -529
-366 -187 -194 -305 -416 -361 -678 -25 -119 -25 -391 0 -510 41 -191 131
-397 240 -550 76 -106 235 -271 347 -360 47 -37 146 -108 220 -157 152 -102
507 -313 525 -313 7 0 57 55 111 122 108 134 284 336 333 382 17 17 31 35 31
42 0 7 -69 54 -152 105 -215 130 -419 266 -518 346 -354 284 -520 616 -480
962 52 456 432 805 965 887 133 21 395 14 555 -15 308 -54 672 -201 946 -382
57 -38 107 -69 109 -69 44 0 -170 220 -310 318 -294 207 -637 337 -1004 381
-134 17 -404 12 -541 -9z"/>
<path d="M5164 9571 c-520 -214 -904 -630 -1077 -1166 -122 -377 -113 -778 25
-1155 176 -483 545 -865 1235 -1278 183 -110 231 -135 243 -127 31 19 440 551
440 572 0 4 -28 23 -63 42 -118 65 -313 185 -447 275 -612 412 -912 842 -981
1406 -54 452 185 996 593 1346 136 116 132 113 127 118 -2 3 -45 -12 -95 -33z"/>
<path d="M7001 6947 c-89 -119 -267 -384 -301 -447 -11 -20 -11 -25 1 -32 855
-505 1207 -919 1310 -1538 31 -188 6 -452 -61 -661 -41 -129 -146 -335 -227
-448 -88 -123 -242 -278 -371 -375 -57 -43 -101 -80 -99 -82 7 -8 155 52 250
100 305 156 583 406 762 686 400 625 375 1403 -63 2023 -190 268 -466 504
-938 803 l-164 103 -99 -132z"/>
<path d="M6372 5946 c-67 -113 -154 -252 -192 -311 -39 -58 -70 -107 -70 -109
0 -3 47 -32 105 -67 194 -115 390 -276 512 -418 113 -132 195 -295 228 -452
17 -82 20 -259 4 -345 -74 -419 -424 -734 -924 -830 -125 -25 -375 -24 -510 0
-555 101 -1021 440 -1249 911 -30 61 -62 134 -72 162 -10 29 -25 55 -33 58
-51 20 -201 135 -287 220 -111 111 -184 215 -264 375 -29 58 -54 107 -56 109
-13 14 -13 -19 1 -123 60 -454 273 -899 589 -1225 275 -284 579 -475 960 -602
259 -87 526 -129 821 -129 504 0 916 145 1254 442 308 270 476 660 458 1068
-21 495 -276 898 -789 1247 -133 91 -346 223 -358 223 -3 0 -61 -92 -128 -204z"/>
<path d="M3561 5564 c0 -11 3 -14 6 -6 3 7 2 16 -1 19 -3 4 -6 -2 -5 -13z"/>
</g>
</svg>
